<svg width="52" height="51" viewBox="0 0 52 51" fill="none" xmlns="http://www.w3.org/2000/svg">
<path fill-rule="evenodd" clip-rule="evenodd" d="M3.19386 0.0812658C1.37113 0.454251 0 2.067 0 4V10V47C0 49.2091 1.79086 51 4 51H10C12.2091 51 14 49.2091 14 47V14H22C24.2091 14 26 12.2091 26 10V4C26 1.79086 24.2091 0 22 0H10H4C3.72386 0 3.45425 0.0279822 3.19386 0.0812658Z" fill="#FF7A00"/>
<path fill-rule="evenodd" clip-rule="evenodd" d="M48.8061 50.9187C50.6289 50.5457 52 48.933 52 47L52 41L52 4C52 1.79086 50.2091 -1.56562e-07 48 -3.49691e-07L42 -8.74228e-07C39.7909 -1.06736e-06 38 1.79086 38 4L38 37L30 37C27.7909 37 26 38.7909 26 41L26 47C26 49.2091 27.7909 51 30 51L42 51L48 51C48.2761 51 48.5457 50.972 48.8061 50.9187Z" fill="#FF7A00"/>
</svg>
